<?xml version="1.0" encoding="UTF-8"?>
<svg xmlns="http://www.w3.org/2000/svg" xmlns:xlink="http://www.w3.org/1999/xlink" width="28px" height="28px" viewBox="0 0 28 28" version="1.1">
<g id="surface1">
<path style=" stroke:none;fill-rule:nonzero;fill:rgb(96.862745%,69.803922%,22.352941%);fill-opacity:1;" d="M 5.058594 4.035156 C 4.96875 3.816406 4.921875 3.582031 4.921875 3.335938 C 4.921875 2.316406 5.746094 1.488281 6.765625 1.488281 C 7.277344 1.488281 7.738281 1.699219 8.070312 2.03125 C 8.402344 1.078125 9.308594 0.386719 10.375 0.386719 C 11.101562 0.386719 11.75 0.703125 12.195312 1.207031 C 12.457031 0.503906 13.132812 0 13.929688 0 C 14.769531 0 15.476562 0.5625 15.699219 1.328125 C 16.144531 0.757812 16.839844 0.386719 17.625 0.386719 C 18.691406 0.386719 19.597656 1.078125 19.929688 2.03125 C 20.261719 1.699219 20.722656 1.488281 21.234375 1.488281 C 22.253906 1.488281 23.078125 2.316406 23.078125 3.335938 C 23.078125 3.582031 23.03125 3.816406 22.941406 4.035156 C 24.1875 4.144531 25.164062 5.1875 25.164062 6.460938 C 25.164062 7.09375 24.921875 7.671875 24.523438 8.105469 L 20.851562 12.472656 L 15.105469 14.09375 L 8.253906 12.25 L 4.9375 11.144531 L 3.476562 8.105469 C 3.078125 7.671875 2.835938 7.09375 2.835938 6.460938 C 2.835938 5.1875 3.8125 4.144531 5.058594 4.035156 Z M 5.058594 4.035156 "/>
<path style=" stroke:none;fill-rule:nonzero;fill:rgb(97.647059%,32.941176%,15.686275%);fill-opacity:1;" d="M 24.523438 8.105469 L 3.453125 8.105469 L 5.914062 28 L 22.085938 28 L 24.546875 8.105469 Z M 24.523438 8.105469 "/>
<path style=" stroke:none;fill-rule:nonzero;fill:rgb(94.901961%,94.901961%,94.901961%);fill-opacity:1;" d="M 20.867188 8.105469 L 19.265625 28 L 15.976562 28 L 16.175781 21.382812 C 17.261719 20.671875 17.347656 15.585938 16.375 14.859375 L 16.578125 8.105469 Z M 20.867188 8.105469 "/>
<path style=" stroke:none;fill-rule:nonzero;fill:rgb(94.901961%,94.901961%,94.901961%);fill-opacity:1;" d="M 11.824219 21.382812 L 12.023438 28 L 8.734375 28 L 7.132812 8.105469 L 11.421875 8.105469 L 11.625 14.859375 C 10.652344 15.585938 10.738281 20.671875 11.824219 21.382812 Z M 11.824219 21.382812 "/>
<path style=" stroke:none;fill-rule:nonzero;fill:rgb(87.843137%,60.784314%,17.647059%);fill-opacity:1;" d="M 10.363281 4.035156 C 10.273438 3.816406 10.226562 3.582031 10.226562 3.335938 C 10.226562 2.316406 11.050781 1.488281 12.070312 1.488281 C 12.582031 1.488281 13.042969 1.699219 13.378906 2.03125 C 13.648438 1.246094 14.3125 0.640625 15.136719 0.449219 C 14.8125 0.171875 14.390625 0 13.929688 0 C 13.132812 0 12.457031 0.503906 12.195312 1.207031 C 11.75 0.703125 11.101562 0.386719 10.375 0.386719 C 9.308594 0.386719 8.402344 1.078125 8.070312 2.03125 C 7.738281 1.699219 7.277344 1.488281 6.765625 1.488281 C 5.746094 1.488281 4.921875 2.316406 4.921875 3.335938 C 4.921875 3.582031 4.96875 3.816406 5.058594 4.035156 C 3.8125 4.144531 2.835938 5.1875 2.835938 6.460938 C 2.835938 7.09375 3.078125 7.671875 3.476562 8.105469 L 8.78125 8.105469 C 8.386719 7.671875 8.144531 7.09375 8.144531 6.460938 C 8.140625 5.1875 9.117188 4.144531 10.363281 4.035156 Z M 10.363281 4.035156 "/>
<path style=" stroke:none;fill-rule:nonzero;fill:rgb(89.803922%,27.843137%,15.686275%);fill-opacity:1;" d="M 7.132812 8.105469 L 8.734375 28 L 5.914062 28 L 3.453125 8.105469 Z M 7.132812 8.105469 "/>
<path style=" stroke:none;fill-rule:nonzero;fill:rgb(96.862745%,69.803922%,22.352941%);fill-opacity:1;" d="M 16.375 14.859375 C 17.347656 15.585938 17.980469 16.746094 17.980469 18.050781 C 17.980469 19.445312 17.261719 20.671875 16.175781 21.382812 C 15.550781 21.792969 14.804688 22.03125 14 22.03125 C 13.195312 22.03125 12.449219 21.792969 11.824219 21.382812 C 10.738281 20.671875 10.019531 19.445312 10.019531 18.050781 C 10.019531 16.746094 10.652344 15.585938 11.625 14.859375 C 12.289062 14.367188 13.109375 14.074219 14 14.074219 C 14.886719 14.074219 15.710938 14.367188 16.375 14.859375 Z M 16.375 14.859375 "/>
</g>
</svg>
