<?xml version="1.0" encoding="UTF-8"?>
<svg xmlns="http://www.w3.org/2000/svg" xmlns:xlink="http://www.w3.org/1999/xlink" width="10px" height="10px" viewBox="0 0 10 10" version="1.1">
<g id="surface1">
<path style=" stroke:none;fill-rule:nonzero;fill:rgb(96.862745%,69.803922%,22.352941%);fill-opacity:1;" d="M 1.804688 1.441406 C 1.773438 1.363281 1.757812 1.277344 1.757812 1.191406 C 1.757812 0.828125 2.050781 0.53125 2.417969 0.53125 C 2.597656 0.53125 2.761719 0.605469 2.882812 0.726562 C 3 0.382812 3.324219 0.136719 3.707031 0.136719 C 3.964844 0.136719 4.195312 0.25 4.355469 0.429688 C 4.449219 0.179688 4.691406 0 4.972656 0 C 5.273438 0 5.527344 0.199219 5.605469 0.476562 C 5.765625 0.269531 6.015625 0.140625 6.292969 0.140625 C 6.675781 0.140625 7 0.382812 7.117188 0.726562 C 7.234375 0.605469 7.402344 0.53125 7.582031 0.53125 C 7.949219 0.53125 8.242188 0.828125 8.242188 1.191406 C 8.242188 1.277344 8.226562 1.363281 8.195312 1.441406 C 8.636719 1.480469 8.988281 1.851562 8.988281 2.308594 C 8.988281 2.535156 8.898438 2.738281 8.757812 2.894531 L 7.449219 4.453125 L 5.394531 5.035156 L 2.949219 4.375 L 1.761719 3.980469 L 1.242188 2.894531 C 1.101562 2.738281 1.011719 2.535156 1.011719 2.308594 C 1.011719 1.851562 1.363281 1.480469 1.804688 1.441406 Z M 1.804688 1.441406 "/>
<path style=" stroke:none;fill-rule:nonzero;fill:rgb(97.647059%,32.941176%,15.686275%);fill-opacity:1;" d="M 8.757812 2.894531 L 1.234375 2.894531 L 2.113281 10 L 7.886719 10 L 8.765625 2.894531 Z M 8.757812 2.894531 "/>
<path style=" stroke:none;fill-rule:nonzero;fill:rgb(94.901961%,94.901961%,94.901961%);fill-opacity:1;" d="M 7.453125 2.894531 L 6.878906 10 L 5.707031 10 L 5.777344 7.636719 C 6.164062 7.382812 6.195312 5.566406 5.847656 5.308594 L 5.921875 2.894531 Z M 7.453125 2.894531 "/>
<path style=" stroke:none;fill-rule:nonzero;fill:rgb(94.901961%,94.901961%,94.901961%);fill-opacity:1;" d="M 4.222656 7.636719 L 4.292969 10 L 3.121094 10 L 2.546875 2.894531 L 4.078125 2.894531 L 4.152344 5.304688 L 4.152344 5.308594 C 3.804688 5.566406 3.835938 7.382812 4.222656 7.636719 Z M 4.222656 7.636719 "/>
<path style=" stroke:none;fill-rule:nonzero;fill:rgb(87.843137%,60.784314%,17.647059%);fill-opacity:1;" d="M 3.699219 1.441406 C 3.667969 1.363281 3.652344 1.277344 3.652344 1.191406 C 3.652344 0.828125 3.945312 0.53125 4.3125 0.53125 C 4.492188 0.53125 4.65625 0.605469 4.777344 0.726562 C 4.875 0.445312 5.113281 0.226562 5.40625 0.160156 C 5.289062 0.0625 5.140625 0 4.972656 0 C 4.691406 0 4.449219 0.179688 4.355469 0.429688 C 4.195312 0.25 3.964844 0.140625 3.707031 0.140625 C 3.324219 0.140625 3 0.382812 2.882812 0.726562 C 2.761719 0.605469 2.597656 0.53125 2.417969 0.53125 C 2.050781 0.53125 1.757812 0.828125 1.757812 1.191406 C 1.757812 1.277344 1.773438 1.363281 1.804688 1.441406 C 1.363281 1.480469 1.011719 1.851562 1.011719 2.308594 C 1.011719 2.535156 1.101562 2.738281 1.242188 2.894531 L 3.136719 2.894531 C 2.996094 2.738281 2.90625 2.535156 2.90625 2.308594 C 2.90625 1.851562 3.257812 1.480469 3.699219 1.441406 Z M 3.699219 1.441406 "/>
<path style=" stroke:none;fill-rule:nonzero;fill:rgb(89.803922%,27.843137%,15.686275%);fill-opacity:1;" d="M 2.546875 2.894531 L 3.121094 10 L 2.113281 10 L 1.234375 2.894531 Z M 2.546875 2.894531 "/>
<path style=" stroke:none;fill-rule:nonzero;fill:rgb(96.862745%,69.803922%,22.352941%);fill-opacity:1;" d="M 5.847656 5.308594 C 6.195312 5.566406 6.421875 5.980469 6.421875 6.449219 C 6.421875 6.945312 6.164062 7.382812 5.777344 7.636719 C 5.554688 7.785156 5.285156 7.867188 5 7.867188 C 4.714844 7.867188 4.445312 7.785156 4.222656 7.636719 C 3.835938 7.382812 3.578125 6.945312 3.578125 6.449219 C 3.578125 5.980469 3.804688 5.566406 4.152344 5.308594 C 4.390625 5.128906 4.683594 5.027344 5 5.027344 C 5.316406 5.027344 5.609375 5.128906 5.847656 5.308594 Z M 5.847656 5.308594 "/>
</g>
</svg>
