<?xml version="1.0" encoding="UTF-8"?>
<svg xmlns="http://www.w3.org/2000/svg" xmlns:xlink="http://www.w3.org/1999/xlink" width="16px" height="16px" viewBox="0 0 16 16" version="1.1">
<g id="surface1">
<path style=" stroke:none;fill-rule:nonzero;fill:rgb(96.862745%,69.803922%,22.352941%);fill-opacity:1;" d="M 2.890625 2.304688 C 2.839844 2.183594 2.8125 2.046875 2.8125 1.90625 C 2.8125 1.324219 3.285156 0.851562 3.867188 0.851562 C 4.15625 0.851562 4.421875 0.96875 4.613281 1.160156 C 4.800781 0.613281 5.320312 0.222656 5.929688 0.222656 C 6.34375 0.222656 6.714844 0.402344 6.96875 0.691406 C 7.117188 0.289062 7.503906 0 7.960938 0 C 8.4375 0 8.84375 0.320312 8.972656 0.761719 C 9.226562 0.433594 9.625 0.222656 10.070312 0.222656 C 10.679688 0.222656 11.199219 0.613281 11.386719 1.160156 C 11.578125 0.96875 11.84375 0.851562 12.132812 0.851562 C 12.714844 0.851562 13.1875 1.324219 13.1875 1.90625 C 13.1875 2.046875 13.160156 2.183594 13.109375 2.304688 C 13.820312 2.367188 14.378906 2.964844 14.378906 3.691406 C 14.378906 4.054688 14.238281 4.382812 14.011719 4.632812 L 11.914062 7.128906 L 8.632812 8.054688 L 4.714844 7 L 2.820312 6.371094 L 1.988281 4.632812 C 1.761719 4.382812 1.621094 4.054688 1.621094 3.691406 C 1.621094 2.964844 2.179688 2.367188 2.890625 2.304688 Z M 2.890625 2.304688 "/>
<path style=" stroke:none;fill-rule:nonzero;fill:rgb(97.647059%,32.941176%,15.686275%);fill-opacity:1;" d="M 14.011719 4.632812 L 1.972656 4.632812 L 3.378906 16 L 12.621094 16 L 14.027344 4.632812 Z M 14.011719 4.632812 "/>
<path style=" stroke:none;fill-rule:nonzero;fill:rgb(94.901961%,94.901961%,94.901961%);fill-opacity:1;" d="M 11.921875 4.632812 L 11.007812 16 L 9.128906 16 L 9.246094 12.21875 C 9.863281 11.8125 9.914062 8.90625 9.355469 8.492188 L 9.472656 4.632812 Z M 11.921875 4.632812 "/>
<path style=" stroke:none;fill-rule:nonzero;fill:rgb(94.901961%,94.901961%,94.901961%);fill-opacity:1;" d="M 6.753906 12.21875 L 6.871094 16 L 4.992188 16 L 4.074219 4.632812 L 6.527344 4.632812 L 6.644531 8.492188 C 6.085938 8.90625 6.136719 11.8125 6.753906 12.21875 Z M 6.753906 12.21875 "/>
<path style=" stroke:none;fill-rule:nonzero;fill:rgb(87.843137%,60.784314%,17.647059%);fill-opacity:1;" d="M 5.921875 2.304688 C 5.871094 2.183594 5.84375 2.046875 5.84375 1.90625 C 5.84375 1.324219 6.316406 0.851562 6.898438 0.851562 C 7.1875 0.851562 7.453125 0.96875 7.644531 1.160156 C 7.796875 0.710938 8.179688 0.367188 8.648438 0.257812 C 8.464844 0.0976562 8.222656 0 7.960938 0 C 7.503906 0 7.117188 0.289062 6.96875 0.691406 C 6.714844 0.402344 6.34375 0.222656 5.929688 0.222656 C 5.320312 0.222656 4.800781 0.613281 4.613281 1.160156 C 4.421875 0.96875 4.15625 0.851562 3.867188 0.851562 C 3.285156 0.851562 2.8125 1.324219 2.8125 1.90625 C 2.8125 2.046875 2.839844 2.183594 2.890625 2.304688 C 2.179688 2.367188 1.621094 2.964844 1.621094 3.691406 C 1.621094 4.054688 1.761719 4.382812 1.988281 4.632812 L 5.019531 4.632812 C 4.792969 4.382812 4.652344 4.054688 4.652344 3.691406 C 4.652344 2.964844 5.210938 2.367188 5.921875 2.304688 Z M 5.921875 2.304688 "/>
<path style=" stroke:none;fill-rule:nonzero;fill:rgb(89.803922%,27.843137%,15.686275%);fill-opacity:1;" d="M 4.074219 4.632812 L 4.992188 16 L 3.378906 16 L 1.972656 4.632812 Z M 4.074219 4.632812 "/>
<path style=" stroke:none;fill-rule:nonzero;fill:rgb(96.862745%,69.803922%,22.352941%);fill-opacity:1;" d="M 9.355469 8.492188 C 9.914062 8.90625 10.273438 9.570312 10.273438 10.316406 C 10.273438 11.113281 9.863281 11.8125 9.246094 12.21875 C 8.886719 12.453125 8.457031 12.589844 8 12.589844 C 7.539062 12.589844 7.113281 12.453125 6.753906 12.21875 C 6.136719 11.8125 5.726562 11.113281 5.726562 10.316406 C 5.726562 9.570312 6.085938 8.90625 6.644531 8.492188 C 7.023438 8.207031 7.492188 8.042969 8 8.042969 C 8.507812 8.042969 8.976562 8.210938 9.355469 8.492188 Z M 9.355469 8.492188 "/>
</g>
</svg>
